<svg width="25" height="49" viewBox="0 0 25 49" fill="none" xmlns="http://www.w3.org/2000/svg">
<g clip-path="url(#clip0_10_27)">
<path d="M7.80257 17.8758C7.77362 17.8758 7.74467 17.8758 7.71572 17.861C7.51305 17.8168 7.38277 17.6105 7.4262 17.4042L8.04867 14.4568C8.12105 14.1179 8.41057 13.8821 8.74351 13.8674L10.0174 13.8526L10.5964 12.1874C10.6688 11.9663 10.8425 11.8042 11.0597 11.7453C11.2768 11.6716 11.5084 11.7158 11.6966 11.8337L12.4928 12.3789L13.5206 11.0231C13.6653 10.8316 13.897 10.7137 14.1286 10.7284C14.3602 10.7431 14.5773 10.861 14.7076 11.0526L15.4604 12.1874L16.6474 11.3916C16.879 11.2295 17.183 11.2295 17.4146 11.3768C17.6607 11.5242 17.791 11.7895 17.7765 12.0695L17.6897 13.3074L18.3845 13.4105C18.6306 13.4547 18.8188 13.6168 18.9201 13.8526C19.0215 14.0884 18.9925 14.3389 18.8477 14.56L17.8344 16.0926L18.0081 17.4189C18.0371 17.6253 17.8778 17.8316 17.6752 17.8463C17.4725 17.8758 17.2699 17.7137 17.2554 17.5074L17.0961 16.1516C17.0817 15.9747 17.1106 15.7979 17.212 15.6505L18.1963 14.1621L17.516 14.0295C17.1541 13.9558 16.8935 13.6168 16.9224 13.2484L17.0093 12.0842L15.8512 12.8505C15.5183 13.0716 15.0695 12.9831 14.8524 12.6442L14.1141 11.5095L13.1008 12.8505C12.8692 13.16 12.4349 13.2337 12.1164 13.0126L11.3202 12.4674L10.7267 14.1031C10.6254 14.3979 10.3503 14.5747 10.0608 14.5895L8.78694 14.6042L8.2079 17.5221C8.13552 17.7431 7.97629 17.8758 7.80257 17.8758Z" fill="#FDB83C"/>
<path d="M16.4013 18.7305C16.271 18.7305 16.1407 18.6568 16.0683 18.5242L15.4314 17.3453C15.3735 17.2274 15.3301 17.0947 15.3445 16.9621L15.3735 16.3284L14.9826 16.4758C14.6352 16.6084 14.2588 16.4463 14.0851 16.1221L13.6798 15.3558L13.3324 15.7832C13.1152 16.0484 12.7389 16.1221 12.4349 15.96L11.8414 15.6505L11.6097 16.3726C11.4939 16.741 11.1031 16.9621 10.7412 16.8589L10.0029 16.6674L9.55415 17.9789C9.48177 18.1853 9.26463 18.2884 9.06197 18.2C8.8593 18.1263 8.75797 17.9053 8.84483 17.6989L9.33701 16.3579C9.46729 16.0042 9.84367 15.8126 10.1911 15.901L10.9004 16.0779L11.132 15.341C11.2044 15.1347 11.3492 14.9726 11.5518 14.8842C11.7545 14.7958 11.9716 14.8105 12.1598 14.9137L12.7968 15.2379L13.1297 14.781C13.2889 14.5895 13.5206 14.501 13.7667 14.5158C14.0127 14.5453 14.2154 14.6926 14.3312 14.9137L14.751 15.7389L15.1419 15.5621C15.3735 15.4737 15.6196 15.5179 15.8222 15.6505C16.0249 15.7979 16.1262 16.0337 16.1262 16.2842L16.0973 16.9768L16.7342 18.141C16.8356 18.3326 16.7632 18.5684 16.5895 18.6716C16.5316 18.7158 16.4737 18.7305 16.4013 18.7305Z" fill="#FDB83C"/>
<path d="M14.4036 49C13.5061 49 12.623 48.8674 11.769 48.6021C10.4517 48.2042 9.17776 47.1432 9.2791 45.6842C9.36595 44.4168 10.4661 43.621 11.465 43.3116C12.2901 43.0463 13.1008 42.9431 13.8825 42.8547C14.7944 42.7368 15.6485 42.6337 16.4737 42.2947C17.2119 41.9853 17.3422 41.7937 17.3277 41.661C17.3133 41.5874 17.2988 41.5432 17.2409 41.4989C16.85 41.2042 15.8512 41.16 14.2444 41.3958L14.1865 41.4105C14.0272 41.44 13.8101 41.4842 13.5495 41.5284C12.2901 41.7937 10.3937 42.1916 9.26462 41.4105C8.83034 41.101 8.54082 40.6589 8.43949 40.0989C8.32368 39.4063 8.64215 38.6695 9.2791 38.2274C9.80023 37.8589 10.4082 37.7705 10.828 37.7263C12.044 37.6084 13.2745 37.5789 14.4615 37.5495C14.8958 37.5347 15.3301 37.5347 15.7643 37.52C16.0539 37.5053 16.3434 37.5053 16.546 37.4168C16.7053 37.3432 16.7342 37.2547 16.7487 37.181C16.7632 37.0484 16.6908 36.8421 16.5026 36.7095C15.8657 36.2526 14.78 36.3263 13.839 36.3853C13.6219 36.4 13.4047 36.4147 13.2021 36.4295C12.3046 36.4589 11.3347 36.4589 10.4082 36.12C9.22119 35.6926 7.80255 34.5284 7.71569 31.4632C7.67226 29.4737 7.13665 27.5137 6.18124 25.8042C5.55877 24.6842 4.77707 23.6821 3.95194 22.621C3.08338 21.501 2.1714 20.3368 1.47655 19.0253C-0.550087 15.2084 -0.506659 10.301 1.57788 6.52842C3.69137 2.74105 7.80255 0.176838 12.073 0.014733C16.3434 -0.162109 20.6427 2.09263 22.9878 5.71789C25.3474 9.37263 25.6659 14.2653 23.784 18.1853C23.3642 19.0695 22.8286 19.9095 22.3219 20.7053C21.5981 21.8547 20.9178 22.9305 20.5269 24.1242C20.165 25.2442 20.0637 26.4232 19.9624 27.6905C19.89 28.4863 19.8321 29.3116 19.6873 30.1368C19.3254 32.2295 18.2976 33.6295 16.8935 33.9832C15.7643 34.2632 14.4615 33.7768 13.6508 32.7747C12.8402 31.8463 12.1888 30.5937 11.8703 29.3558C11.5373 28.1032 11.2768 26.7326 11.5084 25.2442C11.6676 24.2126 12.044 23.1958 12.5651 22.2968C12.7099 22.0463 12.8836 21.7958 13.0573 21.5453C13.4192 21.0147 13.7377 20.5579 13.839 20.0274C13.9259 19.6147 13.7666 19.0695 13.4337 18.9516C13.2745 18.8926 13.0428 18.9221 12.7678 19.0253C12.2177 19.2316 11.6966 19.6737 11.161 20.1453C10.2779 20.8968 9.29357 21.7368 7.93283 21.6484C6.94847 21.5747 5.97858 20.941 5.41401 19.9832C4.97973 19.2316 4.76259 18.3032 4.79155 17.2421C4.83497 15.0021 5.86277 12.7621 7.59988 11.0968C9.13434 9.62315 11.1899 8.62105 13.5206 8.19368C15.084 7.91368 16.4881 7.95789 17.7041 8.31157C19.2241 8.75368 20.498 9.74105 21.1783 11.0084C22.264 13.0274 21.9166 15.7389 20.2229 18.4653C19.5281 19.5853 18.703 20.6316 17.9068 21.6337C17.3277 22.3558 16.7342 23.1074 16.2131 23.8737C14.751 25.981 14.0706 27.8526 14.1285 29.621C14.143 30.2547 14.2878 31.1389 14.8234 31.8021C15.2721 32.3474 15.967 32.6274 16.5316 32.4947C17.6896 32.2 18.0805 30.4316 18.1818 29.901C18.3121 29.1495 18.37 28.3979 18.4424 27.6021C18.5582 26.3053 18.6595 24.9789 19.0793 23.6821C19.5281 22.2968 20.3098 21.0737 21.0481 19.9095C21.5547 19.1137 22.0324 18.3621 22.4233 17.5516C24.0735 14.1179 23.7985 9.82947 21.7284 6.63158C19.6728 3.44842 15.9091 1.47368 12.1453 1.62105C8.41054 1.76842 4.79155 4.00842 2.9531 7.33894C1.10017 10.6105 1.05675 14.9284 2.83729 18.2884C3.47423 19.4821 4.28489 20.5284 5.16792 21.6484C5.99305 22.7095 6.84713 23.8147 7.5275 25.0379C8.59873 26.9832 9.20672 29.1937 9.25014 31.4337C9.29357 33.1874 9.85814 34.2632 10.9149 34.661C11.6097 34.9116 12.3914 34.9263 13.1297 34.8821C13.3179 34.8674 13.5206 34.8674 13.7232 34.8526C14.8668 34.7789 16.2999 34.6758 17.3856 35.4568C18.0081 35.9137 18.3411 36.6358 18.2687 37.3726C18.1963 38.0358 17.762 38.5958 17.1251 38.8758C16.6618 39.0674 16.1841 39.0821 15.8078 39.0968C15.3735 39.1116 14.9247 39.1263 14.4904 39.1263C13.3324 39.1558 12.1309 39.1853 10.9728 39.3032C10.7267 39.3326 10.3793 39.3768 10.1477 39.5389C10.0029 39.6421 9.94499 39.7895 9.94499 39.8484C9.97394 40.0253 10.0463 40.0842 10.1187 40.1432C10.7122 40.5558 12.4059 40.2021 13.231 40.0253C13.5206 39.9663 13.7666 39.9074 13.9548 39.8926L14.0127 39.8779C15.5327 39.6568 17.1975 39.5389 18.1673 40.2905C18.5582 40.6 18.7898 41.0126 18.8477 41.5137C19.0214 42.9579 17.5304 43.5768 17.0382 43.7684C16.0249 44.181 15.0261 44.3137 14.0562 44.4316C13.3034 44.52 12.5941 44.6084 11.9137 44.8295C11.3781 44.9916 10.8425 45.3747 10.7991 45.8316C10.7556 46.3916 11.4939 46.9368 12.2032 47.1432C13.9693 47.6884 15.8657 47.5558 17.9936 46.7305C18.3845 46.5832 18.8332 46.7895 18.978 47.1874C19.1228 47.5853 18.9201 48.0421 18.5292 48.1895C17.0816 48.72 15.7064 49 14.4036 49ZM13.2021 17.3453C13.4482 17.3453 13.6943 17.3895 13.9114 17.4632C15.055 17.8758 15.5182 19.2463 15.3011 20.3221C15.1274 21.1768 14.6786 21.8547 14.2733 22.4442C14.1285 22.6653 13.9838 22.8716 13.839 23.0926C13.4047 23.8147 13.1152 24.64 12.9849 25.48C12.9126 25.9516 12.8981 26.4232 12.927 26.8947C13.3034 25.6274 13.9693 24.3158 14.9247 22.9305C15.4893 22.12 16.0973 21.3537 16.6763 20.6021C17.4725 19.5853 18.2397 18.6274 18.8911 17.581C19.5426 16.5347 20.9467 13.8526 19.7887 11.7158C19.3109 10.8168 18.37 10.1095 17.2409 9.77052C16.242 9.47579 15.0695 9.44631 13.7522 9.69684C11.7111 10.0653 9.93052 10.9347 8.6132 12.2021C7.18008 13.5726 6.326 15.4147 6.29705 17.2421C6.28257 18.0232 6.42733 18.6716 6.70237 19.1579C7.00637 19.6737 7.51303 20.0274 8.00521 20.0716C8.72901 20.1305 9.38043 19.5705 10.1332 18.9221C10.7556 18.3916 11.3926 17.8463 12.1888 17.5368C12.5507 17.4042 12.8836 17.3453 13.2021 17.3453Z" fill="white"/>
</g>
<defs>
<clipPath id="clip0_10_27">
<rect width="25" height="49" fill="white"/>
</clipPath>
</defs>
</svg>
