<?xml version="1.0" standalone="no"?>
<!DOCTYPE svg PUBLIC "-//W3C//DTD SVG 20010904//EN"
 "http://www.w3.org/TR/2001/REC-SVG-20010904/DTD/svg10.dtd">
<svg version="1.0" xmlns="http://www.w3.org/2000/svg"
 width="1568.000000pt" height="1568.000000pt" viewBox="0 0 1568.000000 1568.000000"
 preserveAspectRatio="xMidYMid meet">
<metadata>
Created by potrace 1.14, written by Peter Selinger 2001-2017
</metadata>
<g transform="translate(0.000000,1568.000000) scale(0.100000,-0.100000)"
fill="#000000" stroke="none">
<path d="M7648 15675 c-2 -2 -43 -6 -93 -9 -49 -4 -101 -8 -115 -10 -14 -2
-47 -7 -75 -10 -27 -3 -63 -8 -80 -12 -16 -3 -43 -7 -60 -9 -53 -7 -98 -16
-205 -41 -58 -13 -116 -27 -130 -29 -14 -3 -36 -10 -50 -15 -14 -5 -52 -16
-85 -25 -33 -9 -67 -19 -75 -22 -8 -3 -19 -7 -25 -8 -14 -4 -234 -85 -270
-100 -16 -7 -50 -21 -75 -31 -60 -25 -433 -213 -440 -222 -3 -4 -18 -14 -35
-22 -16 -8 -34 -18 -40 -22 -16 -12 -286 -192 -304 -203 -9 -5 -18 -12 -21
-15 -3 -3 -39 -32 -80 -64 -41 -32 -79 -64 -85 -70 -5 -6 -23 -22 -40 -34
-127 -98 -376 -350 -525 -532 -25 -30 -48 -56 -52 -58 -5 -2 -8 -8 -8 -14 0
-5 -6 -15 -12 -22 -7 -7 -22 -25 -33 -40 -11 -16 -34 -47 -52 -71 -36 -48
-176 -262 -186 -285 -4 -8 -21 -37 -38 -65 -16 -27 -35 -62 -40 -77 -6 -16
-15 -28 -20 -28 -5 0 -9 -5 -9 -11 0 -5 -24 -60 -54 -122 -29 -62 -65 -141
-79 -177 -14 -36 -31 -78 -38 -95 -7 -16 -13 -34 -15 -40 -2 -5 -22 -64 -45
-130 -38 -109 -83 -259 -93 -310 -3 -11 -7 -33 -11 -50 -3 -16 -8 -37 -11 -45
-4 -8 -8 -26 -10 -40 -5 -33 -12 -65 -14 -65 -1 0 -3 -9 -4 -20 -5 -30 -16
-98 -20 -122 -3 -12 -7 -43 -11 -70 -4 -26 -9 -59 -11 -73 -5 -27 -8 -53 -21
-175 -10 -100 -11 -716 0 -810 10 -102 18 -167 23 -195 3 -14 7 -43 10 -65 3
-22 12 -73 20 -113 8 -40 12 -77 9 -83 -4 -5 -1 -9 6 -9 7 0 10 -3 7 -6 -4 -3
-2 -20 3 -37 5 -18 12 -45 14 -62 15 -87 116 -424 157 -522 6 -15 12 -30 13
-33 17 -70 183 -420 264 -558 17 -29 31 -55 31 -57 0 -2 21 -36 48 -77 26 -40
54 -85 61 -100 8 -16 18 -28 23 -28 4 0 8 -7 8 -15 0 -8 3 -15 8 -15 4 0 12
-9 17 -19 9 -17 126 -189 147 -216 4 -5 19 -24 33 -41 14 -18 25 -36 25 -42 0
-6 4 -12 8 -14 4 -1 66 -79 137 -173 71 -93 135 -176 142 -183 7 -8 17 -22 23
-32 5 -10 19 -28 30 -41 34 -41 133 -170 249 -325 61 -82 122 -162 134 -178
12 -16 24 -34 26 -40 2 -6 7 -13 10 -16 14 -11 151 -219 151 -229 0 -6 3 -11
8 -11 4 0 19 -21 32 -47 14 -26 31 -54 38 -61 6 -7 12 -20 12 -28 0 -8 4 -14
8 -14 4 0 15 -15 23 -32 9 -18 42 -85 75 -148 59 -115 75 -150 134 -288 42
-99 146 -414 165 -499 9 -37 22 -97 30 -133 33 -143 57 -286 70 -415 3 -27 7
-72 10 -100 3 -27 8 -99 10 -160 13 -272 22 -379 45 -494 10 -48 11 -52 30
-136 30 -134 145 -409 191 -459 11 -11 19 -25 19 -32 0 -7 3 -14 8 -16 4 -1
26 -28 49 -58 55 -73 163 -175 243 -232 73 -52 223 -131 270 -143 3 0 28 -8
55 -18 77 -26 208 -57 217 -51 4 3 8 1 8 -4 0 -5 10 -8 22 -7 12 1 41 -2 64
-6 129 -24 503 -26 719 -3 93 9 533 13 567 4 18 -5 49 -11 68 -14 61 -9 81
-15 165 -51 91 -40 141 -96 150 -166 5 -39 2 -50 -19 -72 -49 -52 -123 -61
-661 -72 -421 -9 -640 -17 -860 -30 -191 -12 -382 -29 -430 -39 -11 -2 -41 -7
-68 -10 -26 -4 -58 -11 -72 -16 -14 -5 -25 -7 -25 -4 0 4 -7 1 -15 -6 -8 -7
-15 -10 -15 -7 0 16 -176 -72 -235 -117 -173 -132 -266 -318 -259 -517 2 -79
37 -213 64 -251 11 -15 20 -31 20 -35 0 -4 12 -25 28 -47 47 -70 144 -155 216
-192 38 -19 75 -39 83 -45 7 -6 13 -9 13 -6 0 3 26 -3 57 -14 32 -11 63 -17
70 -15 7 3 15 1 19 -5 3 -6 12 -8 19 -5 7 2 16 2 19 -2 10 -10 101 -16 241
-16 162 0 310 13 460 40 63 11 70 13 70 14 0 1 15 3 34 6 32 4 42 6 101 18 14
3 36 8 50 11 14 3 36 8 50 11 14 3 34 6 45 8 11 2 34 6 50 9 17 4 43 9 59 11
16 3 52 10 80 15 28 6 71 12 96 16 25 3 63 7 85 10 84 11 143 16 240 21 178 8
205 9 205 4 0 -3 24 -5 53 -6 72 0 162 -14 207 -32 8 -3 17 -6 20 -7 86 -29
115 -83 74 -138 -17 -23 -103 -86 -129 -96 -5 -2 -41 -18 -80 -36 -38 -18 -81
-35 -95 -39 -14 -4 -34 -11 -45 -17 -25 -11 -200 -59 -239 -64 -15 -2 -38 -7
-50 -11 -11 -4 -34 -9 -51 -10 -16 -2 -52 -8 -80 -13 -51 -9 -129 -21 -175
-26 -14 -1 -52 -6 -85 -10 -33 -3 -68 -9 -77 -11 -10 -3 -37 -7 -60 -9 -40 -3
-75 -7 -173 -21 -71 -10 -100 -15 -115 -19 -8 -2 -33 -7 -56 -10 -22 -3 -56
-10 -74 -15 -19 -5 -36 -8 -38 -5 -3 3 -11 0 -19 -6 -7 -6 -13 -9 -13 -6 0 4
-18 0 -40 -8 -22 -8 -40 -12 -40 -9 0 2 -17 -3 -37 -11 -21 -9 -38 -15 -38
-14 0 4 -94 -24 -125 -38 -353 -152 -559 -372 -610 -650 -14 -81 -14 -210 0
-264 7 -24 13 -53 15 -64 6 -47 86 -215 107 -223 4 -2 8 -10 8 -18 0 -36 299
-304 339 -304 5 0 11 -3 13 -7 2 -5 41 -27 88 -49 129 -63 293 -116 460 -149
47 -9 92 -19 100 -22 8 -3 33 -7 55 -8 22 -2 54 -6 70 -9 106 -21 506 -28 655
-13 145 15 222 25 273 36 43 10 110 22 137 25 9 1 21 5 28 10 6 4 12 5 12 3 0
-3 57 10 128 29 70 19 136 37 148 39 11 3 61 18 110 35 49 17 96 32 104 34 65
18 180 72 180 85 0 4 10 18 23 31 13 14 31 46 39 71 15 45 18 142 5 155 -4 4
-7 14 -7 21 0 8 -5 19 -10 26 -6 7 -19 24 -31 40 -32 42 -102 78 -163 84 -50
5 -119 -9 -181 -37 -11 -5 -42 -17 -70 -25 -27 -9 -57 -19 -65 -22 -8 -4 -17
-7 -20 -8 -3 0 -39 -11 -80 -24 -89 -27 -347 -87 -410 -95 -25 -3 -56 -8 -70
-11 -66 -13 -182 -20 -360 -20 -179 1 -241 4 -355 21 -22 3 -51 7 -65 9 -14 2
-25 4 -25 5 0 1 -9 3 -20 4 -50 7 -237 57 -297 80 -220 82 -381 235 -392 371
-6 77 46 166 138 236 28 22 57 44 64 49 6 6 12 8 12 5 0 -3 10 1 23 9 38 25
223 86 300 100 15 3 35 7 45 10 15 5 61 13 117 20 11 1 34 5 50 9 36 7 97 15
235 31 52 6 120 15 170 22 19 3 49 7 65 8 26 3 66 9 195 30 14 3 25 5 25 6 0
1 14 3 30 5 35 3 144 28 245 55 25 7 52 14 60 15 19 5 136 46 223 79 250 96
432 235 518 396 45 83 59 139 63 245 2 54 -2 84 -19 165 -6 29 -46 133 -54
140 -4 3 -19 24 -34 46 -31 46 -118 131 -156 153 -86 48 -114 61 -181 84 -88
30 -192 51 -310 63 -42 4 -329 4 -385 0 -109 -9 -212 -20 -297 -32 -24 -3 -61
-8 -83 -9 -22 -2 -40 -4 -40 -5 0 -1 -11 -3 -25 -6 -24 -4 -158 -30 -210 -40
-14 -3 -52 -11 -85 -19 -33 -7 -63 -11 -67 -9 -5 3 -8 0 -8 -6 0 -6 -3 -9 -8
-6 -6 4 -41 -1 -118 -18 -12 -2 -45 -7 -75 -11 -30 -4 -56 -8 -59 -10 -11 -7
-171 -18 -280 -20 -69 -1 -137 4 -170 12 -30 7 -63 15 -72 17 -25 7 -71 38
-88 61 -39 52 -26 115 34 159 40 30 135 62 211 71 33 3 74 8 90 11 40 5 156
15 225 19 30 1 102 6 160 9 143 8 327 16 565 22 188 5 227 6 258 3 61 -4 449
16 522 27 63 10 74 12 130 29 114 33 184 74 272 162 46 45 123 153 115 161 -1
1 5 17 15 35 9 17 18 39 20 47 13 62 16 85 17 165 5 223 -113 438 -314 572
-60 39 -208 109 -255 120 -5 1 -35 9 -65 17 -30 8 -68 17 -85 20 -16 2 -30 5
-30 6 0 1 -16 3 -35 5 -19 1 -71 6 -114 10 -103 10 -250 10 -406 1 -69 -4
-168 -10 -220 -13 -216 -12 -565 -6 -620 12 -10 3 -31 8 -46 10 -25 4 -60 13
-159 42 -11 4 -54 24 -95 46 -82 43 -218 170 -258 242 -58 104 -115 244 -128
315 -3 14 -9 41 -14 60 -4 19 -11 57 -15 83 -3 27 -8 58 -10 68 -4 17 -13 159
-18 272 -1 20 2 37 6 37 5 0 5 6 0 13 -4 6 -9 32 -9 57 -2 58 -10 141 -29 320
-2 19 -5 35 -5 35 -1 0 -3 11 -5 25 -1 14 -5 39 -8 55 -4 17 -9 53 -13 80 -3
28 -8 53 -10 56 -2 3 -6 20 -9 37 -3 17 -12 62 -20 99 -9 37 -18 79 -21 93 -5
23 -64 228 -84 293 -5 15 -6 27 -2 27 4 0 2 4 -3 8 -9 6 -18 29 -40 102 -1 3
-5 14 -10 25 -4 11 -21 56 -38 100 -17 44 -34 84 -39 89 -4 6 -8 15 -8 22 0
24 -156 346 -221 455 -16 27 -29 54 -29 59 0 6 -4 10 -10 10 -5 0 -10 5 -10
10 0 9 -119 206 -142 235 -5 6 -58 82 -120 170 -61 88 -128 181 -147 206 -20
26 -44 57 -53 70 -54 75 -211 275 -219 277 -5 2 -9 8 -9 14 0 5 -23 37 -50 71
-28 34 -80 100 -116 147 -36 47 -71 92 -77 100 -7 8 -37 49 -67 90 -30 41 -58
77 -62 78 -5 2 -8 9 -8 15 0 7 -10 24 -22 38 -13 14 -27 32 -33 41 -5 9 -45
68 -87 132 -43 63 -78 119 -78 125 0 6 -4 11 -10 11 -5 0 -10 4 -10 9 0 5 -24
49 -54 99 -140 233 -298 617 -362 877 -29 119 -46 194 -49 210 -1 11 -6 36 -9
55 -28 152 -35 204 -53 395 -16 159 -8 582 12 735 2 14 6 48 9 75 7 53 8 61
26 165 7 36 13 72 14 80 2 8 6 29 9 45 4 17 9 39 12 50 14 65 49 191 71 260
15 44 27 85 28 90 1 10 8 28 43 120 35 91 91 221 124 287 16 32 28 59 27 61
-2 2 2 10 8 18 7 8 24 37 39 64 65 120 156 264 234 373 46 64 87 119 90 122 3
3 24 28 46 55 21 28 55 68 75 90 47 54 320 325 351 349 13 11 38 31 54 45 17
14 48 40 70 56 21 17 53 42 70 57 18 15 35 25 39 21 3 -3 6 -2 6 4 0 11 175
130 290 198 36 21 76 45 90 53 14 9 32 17 40 19 8 1 16 7 18 12 2 6 12 11 23
11 10 0 19 3 19 8 0 4 15 14 33 21 17 8 73 34 122 57 170 79 475 188 585 209
8 2 35 9 60 16 25 6 52 13 60 14 8 2 29 6 45 9 17 4 44 9 60 11 35 5 70 13 70
15 0 1 11 3 25 4 44 4 154 18 175 22 55 11 442 24 458 16 4 -2 51 -5 105 -8
53 -2 106 -6 117 -8 11 -2 49 -7 85 -11 36 -4 74 -9 85 -12 11 -2 36 -6 55 -9
19 -2 42 -7 50 -9 8 -2 29 -7 45 -10 17 -2 41 -7 55 -10 14 -3 36 -8 50 -11
14 -3 30 -7 35 -8 6 -2 24 -6 40 -10 17 -4 62 -17 100 -28 73 -21 85 -24 97
-27 4 -1 25 -8 45 -16 21 -7 74 -27 118 -43 105 -39 318 -133 326 -145 3 -5 9
-8 13 -7 16 3 353 -185 376 -210 3 -3 41 -30 85 -59 331 -222 673 -568 902
-911 165 -247 323 -562 393 -785 7 -22 15 -44 19 -50 3 -5 6 -14 7 -20 1 -5
13 -48 27 -95 32 -104 64 -233 73 -286 3 -21 8 -42 10 -45 2 -4 6 -24 10 -45
3 -22 8 -52 11 -69 2 -16 6 -43 9 -60 2 -16 5 -41 8 -55 6 -28 13 -100 23
-210 13 -158 6 -602 -11 -688 -3 -13 -6 -43 -7 -68 -2 -24 -5 -44 -8 -44 -3 0
-6 -15 -6 -32 -1 -35 -3 -46 -35 -208 -12 -57 -24 -108 -27 -113 -3 -4 -7 -23
-9 -40 -3 -18 -9 -43 -14 -57 -21 -62 -73 -236 -73 -247 0 -7 -4 -13 -9 -13
-4 0 -8 -6 -8 -14 0 -7 -6 -29 -14 -47 -8 -19 -15 -38 -17 -44 -11 -40 -170
-369 -181 -373 -4 -2 -6 -7 -3 -12 3 -4 -2 -13 -10 -20 -8 -7 -15 -17 -15 -22
0 -6 -9 -23 -21 -39 -11 -16 -17 -29 -13 -29 4 0 0 -8 -8 -17 -9 -10 -28 -40
-43 -68 -15 -27 -41 -69 -56 -93 -16 -24 -36 -57 -45 -75 -9 -18 -20 -34 -23
-37 -7 -5 -178 -275 -198 -313 -7 -12 -17 -29 -23 -37 -24 -34 -80 -122 -80
-125 0 -2 -25 -44 -55 -93 -30 -50 -55 -95 -55 -100 0 -6 -3 -12 -8 -14 -17
-7 -190 -352 -250 -498 -29 -69 -97 -262 -101 -285 -1 -5 -6 -28 -12 -50 -6
-22 -12 -44 -14 -50 -1 -5 -5 -17 -8 -25 -6 -14 -29 -124 -42 -200 -3 -19 -10
-54 -16 -78 -5 -24 -7 -47 -4 -52 3 -5 1 -11 -4 -15 -5 -3 -9 -13 -9 -23 1
-15 -7 -89 -17 -152 -2 -14 -7 -50 -10 -80 -3 -30 -7 -71 -10 -90 -4 -31 -11
-101 -20 -210 -2 -19 -6 -65 -9 -102 -3 -37 -8 -93 -11 -125 -11 -107 -14
-138 -20 -218 -3 -44 -8 -87 -10 -95 -2 -8 -7 -46 -10 -85 -3 -38 -8 -81 -11
-95 -3 -14 -7 -43 -10 -65 -2 -22 -9 -63 -14 -91 -6 -28 -13 -64 -16 -80 -30
-153 -113 -373 -187 -494 -25 -41 -29 -46 -59 -82 -13 -14 -30 -35 -38 -45 -9
-10 -31 -29 -49 -43 -18 -14 -38 -29 -45 -35 -76 -65 -238 -90 -356 -55 -25 8
-48 14 -51 14 -17 2 -109 51 -109 58 0 4 -6 8 -14 8 -22 0 -145 119 -188 183
-42 61 -114 210 -123 253 -2 6 -10 36 -18 65 -28 98 -46 247 -48 384 -1 33 11
233 15 250 2 11 7 47 11 80 3 32 8 62 11 66 2 4 6 22 8 42 3 19 12 63 21 98 9
35 19 73 22 84 2 11 5 25 7 30 1 6 17 54 35 107 18 54 32 100 31 104 -1 4 2
10 7 13 10 7 73 162 73 179 0 7 3 12 8 12 4 0 13 15 21 33 26 63 76 162 94
190 10 15 20 34 21 41 1 8 7 20 13 27 6 8 21 32 34 54 36 64 44 78 69 120 39
64 226 341 291 429 32 45 67 92 76 105 10 13 23 29 28 35 6 6 30 38 54 71 25
33 47 62 50 65 3 3 26 32 51 65 61 82 57 77 85 107 13 15 36 45 52 65 15 21
33 43 38 49 6 6 21 25 35 43 88 114 146 186 152 189 5 2 8 8 8 13 0 5 8 17 18
27 23 25 42 49 72 92 13 19 29 40 35 47 5 7 15 18 20 25 17 22 149 204 165
228 8 12 21 29 28 36 7 8 10 14 5 14 -4 0 -3 4 4 8 12 7 128 181 131 195 1 4
7 14 14 21 25 26 137 218 191 326 17 36 35 67 40 68 4 2 7 8 7 12 0 5 18 48
40 95 22 47 40 88 40 91 0 3 10 26 22 52 11 26 21 53 21 60 0 6 4 12 9 12 5 0
7 4 4 8 -2 4 2 21 9 37 53 115 137 477 152 655 8 92 8 281 0 375 -6 80 -9 94
-27 190 -6 28 -11 59 -13 70 -2 11 -6 27 -9 35 -3 8 -16 49 -29 90 -24 79 -63
172 -106 255 -27 53 -127 210 -150 235 -7 8 -32 37 -56 64 -102 119 -291 284
-387 337 -14 8 -35 23 -47 33 -13 11 -23 15 -23 10 0 -5 -4 -4 -8 1 -11 15
-135 78 -232 118 -111 46 -183 70 -305 101 -110 27 -136 32 -270 51 -202 29
-573 24 -805 -10 -19 -3 -53 -8 -75 -11 -36 -5 -208 -38 -260 -49 -11 -3 -36
-8 -55 -12 -43 -9 -42 -8 -60 -16 -14 -6 -123 -35 -160 -42 -8 -2 -15 -4 -15
-5 0 -1 -7 -3 -15 -5 -8 -1 -62 -19 -120 -40 -58 -20 -109 -37 -115 -39 -5 -2
-21 -7 -35 -13 -14 -6 -42 -16 -62 -24 -21 -7 -38 -16 -38 -19 0 -4 -6 -7 -14
-7 -28 0 -310 -139 -443 -219 -74 -44 -270 -174 -303 -200 -96 -77 -199 -163
-216 -179 -186 -177 -242 -236 -353 -370 -136 -165 -323 -478 -414 -693 -63
-146 -139 -395 -162 -527 -3 -16 -8 -37 -10 -45 -3 -8 -7 -35 -10 -60 -3 -25
-7 -56 -10 -70 -26 -132 -25 -516 0 -640 3 -14 7 -38 10 -55 30 -176 111 -378
213 -530 40 -59 174 -204 224 -241 98 -75 188 -127 275 -160 26 -11 51 -19 56
-20 4 -1 8 -2 10 -4 3 -2 24 -7 107 -24 119 -23 243 -18 406 19 138 31 392
174 557 314 12 11 58 49 102 86 44 37 88 75 97 84 9 9 23 21 30 26 7 6 40 33
73 61 33 27 76 61 95 74 19 13 40 28 45 34 25 28 225 133 269 142 12 2 34 6
50 10 111 24 183 -11 226 -109 34 -77 44 -166 28 -237 -5 -19 -11 -46 -14 -60
-11 -54 -107 -233 -196 -363 -173 -255 -186 -276 -264 -427 -50 -96 -156 -343
-159 -370 -1 -3 -13 -41 -27 -85 -27 -82 -62 -222 -72 -285 -3 -19 -10 -62
-16 -95 -28 -168 -31 -549 -5 -683 1 -9 6 -46 10 -82 4 -36 9 -68 11 -71 2 -4
6 -27 9 -50 7 -56 78 -362 105 -454 12 -38 23 -77 25 -85 7 -33 87 -241 117
-306 17 -38 33 -73 34 -79 1 -5 27 -54 58 -109 31 -54 56 -100 56 -102 0 -5
164 -248 179 -266 6 -7 20 -24 32 -38 150 -186 293 -304 457 -381 65 -30 168
-66 212 -74 14 -3 36 -7 50 -11 58 -14 247 -12 325 2 255 48 486 209 644 449
25 39 48 72 51 75 3 3 16 28 30 55 14 28 32 58 40 69 8 10 14 20 12 22 -1 2 6
23 16 47 10 23 31 78 46 122 16 44 31 87 34 95 3 8 6 20 7 25 2 6 8 30 15 55
7 25 14 56 16 70 3 14 9 39 14 55 9 32 22 97 25 130 2 19 11 76 20 135 2 14 7
50 10 80 3 30 8 66 10 80 2 14 6 57 10 95 3 39 8 86 10 105 2 19 7 69 10 110
3 41 7 95 10 120 3 25 7 74 10 110 5 63 7 87 20 235 4 39 11 100 16 138 5 37
8 70 7 75 -1 4 1 21 5 37 4 17 9 46 11 65 3 31 9 65 23 135 2 11 6 36 9 55 12
75 78 318 95 352 5 10 9 22 9 27 0 5 5 22 12 38 6 15 12 30 13 33 2 6 17 41
47 113 59 141 228 448 373 677 30 47 60 95 67 107 35 60 123 199 128 203 4 3
10 12 13 20 4 8 17 31 30 51 12 19 42 69 67 110 24 41 48 76 52 77 5 2 8 8 8
14 0 6 19 43 43 82 45 74 197 375 234 461 86 205 173 470 218 668 2 10 6 26 9
35 3 9 7 35 11 57 3 22 8 47 10 55 3 8 7 31 10 50 3 19 7 44 9 55 2 11 7 40
10 65 3 25 8 58 11 73 3 15 7 51 10 80 2 29 4 52 5 52 14 0 20 641 7 775 -10
107 -17 171 -24 205 -2 17 -6 47 -6 67 -1 21 -4 38 -7 38 -3 0 -6 12 -7 28 -1
15 -7 52 -13 82 -6 30 -13 64 -15 75 -16 93 -91 382 -112 435 -8 20 -8 20 -18
55 -4 17 -11 35 -16 40 -4 6 -7 12 -8 15 0 10 -48 147 -61 175 -40 86 -70 160
-70 171 0 8 -4 14 -10 14 -5 0 -9 3 -8 8 6 18 -214 422 -234 430 -4 2 -8 8 -8
13 0 13 -81 133 -92 137 -4 2 -8 8 -8 13 0 8 -101 146 -167 228 -61 75 -134
153 -278 296 -182 181 -165 166 -405 359 -9 6 -38 27 -65 46 -28 18 -52 37
-55 40 -6 8 -258 170 -264 170 -2 0 -33 17 -67 38 -89 53 -263 140 -394 197
-147 63 -138 59 -240 96 -49 17 -99 35 -110 40 -31 12 -209 64 -254 73 -9 2
-23 6 -31 9 -8 3 -51 13 -94 22 -44 9 -82 18 -86 20 -3 2 -26 6 -51 9 -24 3
-55 8 -69 11 -14 3 -38 8 -55 10 -16 2 -48 7 -70 10 -167 22 -237 27 -472 30
-128 1 -234 1 -235 0z m1411 -3061 c58 -8 113 -17 124 -20 11 -3 31 -8 46 -9
14 -2 44 -8 66 -15 22 -6 49 -13 61 -15 12 -1 35 -10 52 -19 18 -9 34 -16 37
-16 12 -1 62 -20 145 -58 307 -140 558 -410 659 -708 20 -61 23 -72 41 -157
21 -102 29 -315 16 -412 -2 -16 -7 -53 -10 -81 -4 -28 -9 -61 -12 -75 -3 -13
-7 -35 -10 -48 -30 -147 -91 -332 -159 -486 -55 -124 -67 -150 -75 -165 -5 -8
-21 -40 -37 -70 -51 -100 -265 -444 -293 -470 -3 -3 -21 -27 -40 -55 -19 -27
-38 -51 -42 -53 -4 -2 -8 -10 -8 -17 0 -7 -3 -15 -7 -17 -5 -1 -61 -74 -126
-160 -65 -87 -123 -163 -130 -170 -7 -7 -34 -42 -62 -78 -27 -36 -52 -67 -55
-70 -3 -3 -25 -32 -51 -65 -25 -33 -107 -141 -184 -239 -126 -164 -318 -422
-355 -476 -8 -13 -24 -35 -36 -49 -12 -14 -23 -30 -25 -36 -7 -18 -84 -130
-91 -133 -5 -2 -8 -8 -8 -12 0 -5 -26 -51 -58 -102 -56 -89 -105 -172 -144
-248 -10 -19 -23 -42 -28 -50 -10 -15 -118 -237 -120 -245 0 -3 -12 -30 -25
-60 -14 -31 -25 -58 -25 -61 0 -3 -6 -20 -14 -37 -15 -35 -40 -99 -42 -107 0
-3 -3 -12 -7 -20 -9 -25 -31 -94 -33 -109 -2 -7 -7 -18 -12 -23 -20 -20 -2
382 19 440 5 14 5 21 0 18 -5 -3 -3 14 5 39 7 25 11 45 8 45 -3 0 0 9 5 19 6
10 12 34 15 52 2 19 19 79 37 134 18 55 33 102 34 105 1 3 9 22 18 44 9 21 17
41 17 43 0 11 105 218 112 221 5 2 8 10 8 18 0 8 5 14 10 14 6 0 10 7 10 15 0
8 5 15 10 15 6 0 10 4 10 9 0 4 42 71 93 147 149 220 247 391 272 474 4 14 11
30 15 35 7 8 28 73 36 110 1 6 7 29 13 51 20 75 34 274 18 274 -4 0 -5 4 -2
10 5 9 0 49 -19 139 -9 41 -38 125 -54 156 -9 17 -15 33 -14 38 1 4 -3 7 -10
7 -6 0 -9 3 -6 6 11 10 -79 133 -130 178 -85 75 -153 116 -243 145 -64 21 -82
23 -189 26 -97 3 -139 -1 -210 -20 -14 -3 -34 -8 -45 -9 -11 -2 -21 -5 -22 -6
-2 -1 -6 -3 -10 -4 -50 -11 -235 -99 -261 -123 -7 -7 -17 -13 -22 -13 -11 0
-127 -79 -152 -102 -10 -10 -21 -18 -25 -18 -5 0 -24 -15 -44 -33 -19 -17 -53
-45 -75 -62 -21 -16 -44 -34 -50 -40 -6 -5 -35 -30 -64 -55 -29 -25 -58 -49
-64 -55 -6 -5 -38 -32 -71 -60 -33 -27 -61 -53 -63 -57 -2 -5 -10 -8 -17 -8
-7 0 -15 -4 -17 -8 -5 -13 -95 -76 -166 -116 -143 -81 -314 -102 -413 -51 -15
8 -33 15 -38 15 -22 0 -135 87 -186 142 -78 87 -148 230 -176 363 -37 171 -43
441 -15 602 3 15 8 46 11 68 3 22 15 78 27 125 11 46 21 89 22 95 1 5 4 15 8
20 3 6 9 25 13 43 4 18 18 61 32 95 34 83 41 101 40 107 0 3 9 23 20 45 12 22
21 43 22 47 1 8 8 21 66 123 15 28 33 59 39 70 49 89 192 286 275 378 114 126
280 277 416 378 33 24 62 47 63 52 2 4 8 7 13 7 5 0 42 22 83 50 123 82 309
179 496 257 89 37 271 102 305 109 11 2 31 8 45 14 14 5 75 21 135 36 140 33
145 34 175 39 14 2 36 6 50 9 13 3 40 8 60 11 20 3 47 7 60 10 36 7 87 14 155
21 33 3 61 7 63 8 9 10 405 1 491 -10z"/>
<path d="M8245 12217 c-52 -30 -59 -38 -291 -345 l-115 -152 -30 17 c-16 9
-29 21 -29 25 0 4 -7 8 -15 8 -8 0 -15 5 -15 10 0 6 -6 10 -13 10 -7 0 -22 8
-33 18 -22 21 -154 106 -166 108 -4 1 -9 2 -10 4 -23 18 -124 13 -174 -9 -73
-33 -107 -77 -144 -189 -10 -31 -44 -129 -75 -217 -31 -88 -63 -181 -72 -207
-9 -27 -19 -48 -22 -49 -3 0 -100 -2 -216 -4 -198 -2 -295 -14 -295 -36 0 -4
-9 -11 -21 -14 -41 -13 -89 -101 -105 -192 -5 -27 -11 -59 -18 -93 -12 -55
-17 -76 -20 -95 -3 -11 -12 -56 -21 -100 -10 -44 -19 -87 -20 -95 -2 -8 -4
-15 -5 -15 -1 0 -3 -11 -5 -25 -2 -14 -11 -56 -20 -95 -85 -386 -90 -423 -59
-470 28 -43 122 -73 139 -45 4 6 10 8 14 5 15 -8 79 77 73 98 -1 4 3 7 9 7 5
0 8 4 5 8 -3 5 1 38 9 73 7 36 16 81 19 100 3 20 8 42 10 50 3 8 7 30 10 49 3
19 8 46 11 60 2 14 12 60 21 103 8 42 18 90 20 105 3 15 9 46 15 70 5 24 7 47
4 52 -3 4 -1 10 4 12 5 1 12 23 15 48 3 25 13 76 21 115 8 38 15 73 15 76 0 4
15 7 33 7 333 -1 411 4 461 27 77 34 108 75 151 195 20 58 43 119 50 135 7 17
22 59 34 95 12 36 26 74 31 85 5 11 19 48 31 82 l21 62 97 -65 c53 -35 104
-70 115 -77 10 -6 24 -17 30 -22 40 -37 140 -58 203 -42 25 7 86 37 93 47 3 4
20 25 37 46 18 21 63 80 100 130 152 204 215 284 223 284 4 0 10 -6 13 -14 3
-7 53 -86 111 -175 58 -88 106 -164 106 -167 0 -5 42 -45 76 -73 40 -32 162
-39 215 -11 13 7 77 48 142 92 65 43 122 78 127 78 5 0 10 3 12 8 5 12 118 83
119 75 1 -5 1 -11 0 -15 0 -4 -3 -38 -6 -75 -3 -38 -8 -106 -12 -153 -11 -144
-8 -192 17 -239 24 -48 60 -85 103 -108 30 -15 177 -50 247 -57 23 -3 42 -26
21 -26 -6 0 -11 -6 -11 -13 0 -8 -9 -22 -20 -32 -11 -10 -20 -22 -20 -26 0
-11 -122 -193 -132 -197 -4 -2 -8 -8 -8 -14 0 -6 -20 -39 -45 -74 -25 -34 -45
-65 -45 -69 0 -3 -10 -21 -23 -38 -12 -18 -24 -41 -27 -52 -10 -38 -2 -194 14
-311 6 -38 7 -52 22 -179 9 -85 26 -120 71 -143 32 -17 90 -15 120 5 30 20 63
87 57 117 -3 12 -7 37 -9 56 -4 34 -7 54 -20 155 -4 28 -8 61 -10 75 -1 14 -5
52 -9 85 l-7 60 166 250 c92 138 173 266 181 285 24 56 18 151 -13 200 -47 74
-95 107 -181 121 -32 5 -66 11 -77 13 -11 2 -43 7 -72 11 l-52 7 4 51 c2 29 7
97 11 152 19 257 9 313 -66 383 -45 43 -66 52 -160 67 -39 6 -173 -60 -228
-112 -7 -7 -17 -13 -22 -13 -5 0 -15 -6 -22 -12 -25 -23 -77 -58 -87 -58 -5 0
-11 -3 -13 -7 -3 -8 -79 -60 -113 -78 -18 -10 -31 6 -143 175 -68 102 -136
198 -152 213 -41 39 -95 60 -160 62 -44 1 -65 -4 -105 -28z"/>
<path d="M8170 11027 c-62 -13 -110 -51 -175 -140 -31 -42 -59 -77 -63 -77 -4
0 -63 28 -131 62 -142 71 -193 78 -274 39 -37 -18 -107 -80 -108 -96 0 -2 -6
-19 -13 -37 -7 -18 -28 -81 -46 -139 l-33 -106 -46 14 c-25 7 -57 16 -71 18
-14 3 -49 11 -78 19 -92 25 -177 9 -238 -45 -27 -24 -35 -34 -62 -84 -10 -20
-109 -286 -117 -315 -2 -8 -15 -45 -29 -83 -30 -79 -32 -97 -10 -143 49 -102
207 -78 229 34 2 11 9 31 16 44 7 13 12 25 12 28 -1 8 3 20 32 100 15 41 29
86 31 99 3 13 11 35 18 50 7 14 16 38 19 52 l7 26 52 -14 c29 -8 60 -16 68
-17 9 -1 21 -5 28 -10 6 -4 12 -5 12 -2 0 3 19 -1 41 -10 97 -33 188 -13 258
57 27 27 57 80 65 114 4 19 59 190 63 197 2 4 58 -20 123 -53 123 -62 157 -70
235 -55 55 11 101 47 168 133 33 42 62 71 67 67 4 -5 29 -49 55 -99 91 -172
114 -204 177 -236 62 -32 119 -32 213 2 46 16 85 29 87 29 2 0 4 -64 4 -142
l-1 -143 51 -90 c28 -49 72 -130 99 -180 81 -153 96 -175 127 -191 109 -56
216 59 161 172 -21 41 -78 147 -121 224 -82 146 -82 145 -76 260 8 157 5 183
-33 243 -32 51 -45 62 -103 89 -61 29 -132 27 -203 -6 -105 -48 -93 -55 -172
105 -38 77 -84 155 -101 173 -57 59 -130 80 -214 63z"/>
</g>
</svg>
